<svg width="32" height="32" viewBox="0 0 32 32" fill="none" xmlns="http://www.w3.org/2000/svg">
<g clip-path="url(#clip0_1007_19941)">
<path d="M24 16C22.5952 16.0016 21.2148 15.6329 19.9979 14.9309C18.781 14.229 17.7707 13.2186 17.0688 12.0017C16.367 10.7848 15.9983 9.40435 16 7.99953C16.0017 6.59472 16.3738 5.21518 17.0787 4H5.656L5.6 3.53067C5.4851 2.55813 5.01741 1.66154 4.28558 1.01081C3.55375 0.360072 2.60863 0.000417115 1.62933 0L1.33333 0C0.979711 0 0.640573 0.140476 0.390524 0.390524C0.140476 0.640573 0 0.979711 0 1.33333C0 1.68696 0.140476 2.02609 0.390524 2.27614C0.640573 2.52619 0.979711 2.66667 1.33333 2.66667H1.62933C1.95591 2.66671 2.27112 2.78661 2.51516 3.00362C2.75921 3.22063 2.91512 3.51967 2.95333 3.844L4.788 19.444C4.97847 21.0664 5.75797 22.5624 6.97854 23.648C8.19912 24.7337 9.77581 25.3334 11.4093 25.3333H25.3333C25.687 25.3333 26.0261 25.1929 26.2761 24.9428C26.5262 24.6928 26.6667 24.3536 26.6667 24C26.6667 23.6464 26.5262 23.3072 26.2761 23.0572C26.0261 22.8071 25.687 22.6667 25.3333 22.6667H11.4093C10.5838 22.6646 9.77921 22.4072 9.10579 21.9298C8.43237 21.4524 7.92316 20.7783 7.648 20H23.5427C25.1057 20.0001 26.6191 19.451 27.8184 18.4486C29.0177 17.4462 29.8267 16.0543 30.104 14.516L30.4213 12.7573C29.6797 13.7629 28.7122 14.5802 27.5969 15.1434C26.4815 15.7066 25.2495 16 24 16Z" fill="black"/>
<path d="M9.33365 32.0013C10.8064 32.0013 12.0003 30.8074 12.0003 29.3346C12.0003 27.8619 10.8064 26.668 9.33365 26.668C7.8609 26.668 6.66699 27.8619 6.66699 29.3346C6.66699 30.8074 7.8609 32.0013 9.33365 32.0013Z" fill="black"/>
<path d="M22.6667 32.0013C24.1394 32.0013 25.3333 30.8074 25.3333 29.3346C25.3333 27.8619 24.1394 26.668 22.6667 26.668C21.1939 26.668 20 27.8619 20 29.3346C20 30.8074 21.1939 32.0013 22.6667 32.0013Z" fill="black"/>
<path d="M20.9774 11.9268C21.2067 12.1745 21.4838 12.3731 21.792 12.5106C22.1003 12.6481 22.4332 12.7216 22.7707 12.7268H22.8147C23.1454 12.7279 23.4731 12.6633 23.7787 12.5367C24.0842 12.4101 24.3616 12.2241 24.5947 11.9895L30.2907 6.29346C30.5419 6.04275 30.6833 5.70249 30.6837 5.34754C30.684 4.9926 30.5434 4.65205 30.2927 4.4008C30.042 4.14955 29.7017 4.00819 29.3468 4.00781C28.9918 4.00744 28.6513 4.14808 28.4 4.3988L22.8174 9.9908L21.172 8.22546C20.9305 7.96679 20.5961 7.81465 20.2424 7.80253C19.8887 7.7904 19.5447 7.91927 19.286 8.1608C19.0274 8.40232 18.8752 8.73671 18.8631 9.0904C18.851 9.4441 18.9798 9.78812 19.2214 10.0468L20.9774 11.9268Z" fill="black"/>
</g>
<defs>
<clipPath id="clip0_1007_19941">
<rect width="32" height="32" fill="white"/>
</clipPath>
</defs>
</svg>
