<svg width="32" height="32" viewBox="0 0 32 32" fill="none" xmlns="http://www.w3.org/2000/svg">
<g clip-path="url(#clip0_1007_20120)">
<path d="M23.333 2.55469C21.8316 2.57804 20.3629 2.99716 19.0753 3.76972C17.7877 4.54227 16.7268 5.64091 15.9996 6.95469C15.2725 5.64091 14.2115 4.54227 12.9239 3.76972C11.6363 2.99716 10.1677 2.57804 8.66629 2.55469C6.27287 2.65868 4.01789 3.70569 2.394 5.467C0.770098 7.2283 -0.0907152 9.56072 -0.000381133 11.9547C-0.000381133 18.0174 6.38095 24.6387 11.733 29.128C12.9279 30.1322 14.4388 30.6827 15.9996 30.6827C17.5605 30.6827 19.0713 30.1322 20.2663 29.128C25.6183 24.6387 31.9996 18.0174 31.9996 11.9547C32.09 9.56072 31.2291 7.2283 29.6052 5.467C27.9813 3.70569 25.7264 2.65868 23.333 2.55469Z" fill="black"/>
</g>
<defs>
<clipPath id="clip0_1007_20120">
<rect width="32" height="32" fill="white"/>
</clipPath>
</defs>
</svg>
