<svg width="25" height="42" viewBox="0 0 25 42" fill="none" xmlns="http://www.w3.org/2000/svg">
<path d="M10.374 41.378V36.164H15.676V41.378H10.374ZM10.374 6.178V0.963997H15.676V6.178H10.374ZM13.146 37.66C10.9167 37.66 8.922 37.2493 7.162 36.428C5.402 35.6067 3.95733 34.448 2.828 32.952C1.71333 31.456 1.002 29.6813 0.694 27.628L5.93 26.792C6.34067 28.596 7.22067 30.0333 8.57 31.104C9.934 32.16 11.562 32.688 13.454 32.688C15.2727 32.688 16.7687 32.2627 17.942 31.412C19.1153 30.5467 19.702 29.454 19.702 28.134C19.702 27.21 19.4233 26.462 18.866 25.89C18.3087 25.3033 17.414 24.8193 16.182 24.438L8.548 22.062C4.104 20.6833 1.882 17.9847 1.882 13.966C1.882 12.0887 2.32933 10.4533 3.224 9.06C4.13333 7.652 5.40933 6.574 7.052 5.826C8.69467 5.06333 10.6307 4.68933 12.86 4.704C14.928 4.71866 16.7687 5.09266 18.382 5.826C20.01 6.55933 21.3593 7.61533 22.43 8.994C23.5153 10.3727 24.2853 12.03 24.74 13.966L19.306 14.956C19.1007 13.9147 18.6973 12.998 18.096 12.206C17.4947 11.414 16.7393 10.798 15.83 10.358C14.9207 9.918 13.9087 9.68333 12.794 9.654C11.7233 9.63933 10.7627 9.808 9.912 10.16C9.06133 10.4973 8.38667 10.9813 7.888 11.612C7.38933 12.228 7.14 12.9247 7.14 13.702C7.14 14.5673 7.48467 15.308 8.174 15.924C8.878 16.54 9.98533 17.068 11.496 17.508L17.194 19.158C19.9367 19.95 21.9093 21.028 23.112 22.392C24.3293 23.7413 24.938 25.538 24.938 27.782C24.938 29.7473 24.4467 31.4707 23.464 32.952C22.4813 34.4333 21.1027 35.592 19.328 36.428C17.5533 37.2493 15.4927 37.66 13.146 37.66Z" fill="black"/>
</svg>
