<svg width="32" height="32" viewBox="0 0 32 32" fill="none" xmlns="http://www.w3.org/2000/svg">
<path d="M21.333 17.332C20.712 18.16 19.9068 18.832 18.9811 19.2949C18.0554 19.7577 17.0346 19.9987 15.9997 19.9987C14.9647 19.9987 13.944 19.7577 13.0183 19.2949C12.0925 18.832 11.2873 18.16 10.6663 17.332C10.1437 18.0365 9.48606 18.6299 8.73172 19.0776C7.97738 19.5253 7.14145 19.8183 6.2727 19.9395C5.40394 20.0608 4.51974 20.0078 3.67165 19.7838C2.82356 19.5598 2.02856 19.1692 1.33301 18.6347V25.332C1.33512 27.0995 2.03818 28.7939 3.28797 30.0437C4.53775 31.2935 6.23221 31.9966 7.99967 31.9987H23.9997C25.7671 31.9966 27.4616 31.2935 28.7114 30.0437C29.9612 28.7939 30.6642 27.0995 30.6663 25.332V18.6307C29.971 19.1654 29.1762 19.5563 28.3283 19.7806C27.4804 20.0049 26.5963 20.0582 25.7275 19.9373C24.8588 19.8165 24.0228 19.5238 23.2683 19.0765C22.5138 18.6292 21.8559 18.0362 21.333 17.332Z" fill="black"/>
<path d="M28.933 4.17476C28.6749 2.98688 28.0164 1.92382 27.0677 1.16377C26.119 0.403718 24.9379 -0.00712957 23.7223 9.36437e-05H22.6663V4.00009C22.6663 4.35372 22.5259 4.69285 22.2758 4.9429C22.0258 5.19295 21.6866 5.33343 21.333 5.33343C20.9794 5.33343 20.6402 5.19295 20.3902 4.9429C20.1402 4.69285 19.9997 4.35372 19.9997 4.00009V9.36437e-05H11.9997V4.00009C11.9997 4.35372 11.8592 4.69285 11.6091 4.9429C11.3591 5.19295 11.02 5.33343 10.6663 5.33343C10.3127 5.33343 9.97358 5.19295 9.72353 4.9429C9.47348 4.69285 9.33301 4.35372 9.33301 4.00009V9.36437e-05H8.27701C7.06126 -0.00706434 5.88 0.403974 4.93131 1.16429C3.98261 1.92461 3.32416 2.98797 3.06634 4.17609L1.36234 11.8668L1.33301 13.3601C1.33476 13.8854 1.43996 14.4052 1.64259 14.8898C1.84523 15.3744 2.14134 15.8144 2.51401 16.1846C3.26665 16.9323 4.28548 17.3503 5.34634 17.3468C5.87163 17.345 6.39143 17.2398 6.87606 17.0372C7.36069 16.8345 7.80067 16.5384 8.17086 16.1658C8.54106 15.7931 8.83423 15.3511 9.03363 14.8652C9.23303 14.3792 9.33476 13.8587 9.33301 13.3334C9.33301 12.9798 9.47348 12.6407 9.72353 12.3906C9.97358 12.1406 10.3127 12.0001 10.6663 12.0001C11.02 12.0001 11.3591 12.1406 11.6091 12.3906C11.8592 12.6407 11.9997 12.9798 11.9997 13.3334C11.9997 14.3943 12.4211 15.4117 13.1712 16.1619C13.9214 16.912 14.9388 17.3334 15.9997 17.3334C17.0605 17.3334 18.078 16.912 18.8281 16.1619C19.5782 15.4117 19.9997 14.3943 19.9997 13.3334C19.9997 12.9798 20.1402 12.6407 20.3902 12.3906C20.6402 12.1406 20.9794 12.0001 21.333 12.0001C21.6866 12.0001 22.0258 12.1406 22.2758 12.3906C22.5259 12.6407 22.6663 12.9798 22.6663 13.3334C22.6663 14.3943 23.0878 15.4117 23.8379 16.1619C24.5881 16.912 25.6055 17.3334 26.6663 17.3334C27.7272 17.3334 28.7446 16.912 29.4948 16.1619C30.2449 15.4117 30.6663 14.3943 30.6663 13.3334V12.1428L28.933 4.17476Z" fill="black"/>
</svg>
