<svg width="125" height="122" viewBox="0 0 125 122" fill="none" xmlns="http://www.w3.org/2000/svg">
<g filter="url(#filter0_d_1007_19318)">
<ellipse cx="62.5302" cy="61" rx="11.9018" ry="10" fill="#BBBBBB"/>
</g>
<g clip-path="url(#clip0_1007_19318)">
<path d="M65.8032 55.957C65.1331 55.9658 64.4776 56.123 63.9029 56.4127C63.3282 56.7024 62.8547 57.1144 62.5302 57.607C62.2056 57.1144 61.7321 56.7024 61.1575 56.4127C60.5828 56.123 59.9273 55.9658 59.2572 55.957C58.189 55.996 57.1825 56.3887 56.4578 57.0491C55.733 57.7096 55.3488 58.5843 55.3891 59.482C55.3891 61.7555 58.2372 64.2385 60.6259 65.922C61.1592 66.2986 61.8335 66.505 62.5302 66.505C63.2268 66.505 63.9011 66.2986 64.4345 65.922C66.8232 64.2385 69.6713 61.7555 69.6713 59.482C69.7116 58.5843 69.3274 57.7096 68.6026 57.0491C67.8778 56.3887 66.8714 55.996 65.8032 55.957Z" fill="white"/>
</g>
<defs>
<filter id="filter0_d_1007_19318" x="0.128418" y="0.5" width="124.804" height="121" filterUnits="userSpaceOnUse" color-interpolation-filters="sRGB">
<feFlood flood-opacity="0" result="BackgroundImageFix"/>
<feColorMatrix in="SourceAlpha" type="matrix" values="0 0 0 0 0 0 0 0 0 0 0 0 0 0 0 0 0 0 127 0" result="hardAlpha"/>
<feMorphology radius="0.5" operator="dilate" in="SourceAlpha" result="effect1_dropShadow_1007_19318"/>
<feOffset/>
<feGaussianBlur stdDeviation="25"/>
<feComposite in2="hardAlpha" operator="out"/>
<feColorMatrix type="matrix" values="0 0 0 0 0 0 0 0 0 0 0 0 0 0 0 0 0 0 0.25 0"/>
<feBlend mode="normal" in2="BackgroundImageFix" result="effect1_dropShadow_1007_19318"/>
<feBlend mode="normal" in="SourceGraphic" in2="effect1_dropShadow_1007_19318" result="shape"/>
</filter>
<clipPath id="clip0_1007_19318">
<rect width="14.2821" height="12" fill="white" transform="translate(55.3892 55)"/>
</clipPath>
</defs>
</svg>
