<svg width="125" height="122" viewBox="0 0 125 122" fill="none" xmlns="http://www.w3.org/2000/svg">
<g filter="url(#filter0_d_1007_19393)">
<ellipse cx="62.5341" cy="61" rx="11.9018" ry="10" fill="#D62828"/>
</g>
<g clip-path="url(#clip0_1007_19393)">
<path d="M65.8071 55.957C65.137 55.9658 64.4815 56.123 63.9068 56.4127C63.3321 56.7024 62.8586 57.1144 62.5341 57.607C62.2096 57.1144 61.736 56.7024 61.1614 56.4127C60.5867 56.123 59.9312 55.9658 59.2611 55.957C58.1929 55.996 57.1864 56.3887 56.4617 57.0491C55.7369 57.7096 55.3527 58.5843 55.393 59.482C55.393 61.7555 58.2411 64.2385 60.6298 65.922C61.1631 66.2986 61.8375 66.505 62.5341 66.505C63.2307 66.505 63.905 66.2986 64.4384 65.922C66.8271 64.2385 69.6752 61.7555 69.6752 59.482C69.7155 58.5843 69.3313 57.7096 68.6065 57.0491C67.8817 56.3887 66.8753 55.996 65.8071 55.957Z" fill="white"/>
</g>
<defs>
<filter id="filter0_d_1007_19393" x="0.132324" y="0.5" width="124.804" height="121" filterUnits="userSpaceOnUse" color-interpolation-filters="sRGB">
<feFlood flood-opacity="0" result="BackgroundImageFix"/>
<feColorMatrix in="SourceAlpha" type="matrix" values="0 0 0 0 0 0 0 0 0 0 0 0 0 0 0 0 0 0 127 0" result="hardAlpha"/>
<feMorphology radius="0.5" operator="dilate" in="SourceAlpha" result="effect1_dropShadow_1007_19393"/>
<feOffset/>
<feGaussianBlur stdDeviation="25"/>
<feComposite in2="hardAlpha" operator="out"/>
<feColorMatrix type="matrix" values="0 0 0 0 0 0 0 0 0 0 0 0 0 0 0 0 0 0 0.25 0"/>
<feBlend mode="normal" in2="BackgroundImageFix" result="effect1_dropShadow_1007_19393"/>
<feBlend mode="normal" in="SourceGraphic" in2="effect1_dropShadow_1007_19393" result="shape"/>
</filter>
<clipPath id="clip0_1007_19393">
<rect width="14.2821" height="12" fill="white" transform="translate(55.3931 55)"/>
</clipPath>
</defs>
</svg>
