<svg width="32" height="32" viewBox="0 0 32 32" fill="none" xmlns="http://www.w3.org/2000/svg">
<g clip-path="url(#clip0_1007_19257)">
<path d="M23.3334 2.55469C21.832 2.57804 20.3634 2.99716 19.0758 3.76972C17.7882 4.54227 16.7273 5.64091 16.0001 6.95469C15.273 5.64091 14.212 4.54227 12.9244 3.76972C11.6368 2.99716 10.1682 2.57804 8.66677 2.55469C6.27336 2.65868 4.01838 3.70569 2.39448 5.467C0.770586 7.2283 -0.0902269 9.56072 0.000107148 11.9547C0.000107148 18.0174 6.38144 24.6387 11.7334 29.128C12.9284 30.1322 14.4392 30.6827 16.0001 30.6827C17.561 30.6827 19.0718 30.1322 20.2668 29.128C25.6188 24.6387 32.0001 18.0174 32.0001 11.9547C32.0904 9.56072 31.2296 7.2283 29.6057 5.467C27.9818 3.70569 25.7269 2.65868 23.3334 2.55469ZM18.5534 27.088C17.8388 27.6899 16.9344 28.0199 16.0001 28.0199C15.0658 28.0199 14.1615 27.6899 13.4468 27.088C6.59611 21.34 2.66677 15.8254 2.66677 11.9547C2.57563 10.2676 3.15526 8.61299 4.27926 7.35162C5.40325 6.09025 6.98042 5.32449 8.66677 5.22135C10.3531 5.32449 11.9303 6.09025 13.0543 7.35162C14.1783 8.61299 14.7579 10.2676 14.6668 11.9547C14.6668 12.3083 14.8073 12.6474 15.0573 12.8975C15.3073 13.1475 15.6465 13.288 16.0001 13.288C16.3537 13.288 16.6929 13.1475 16.9429 12.8975C17.193 12.6474 17.3334 12.3083 17.3334 11.9547C17.2423 10.2676 17.8219 8.61299 18.9459 7.35162C20.0699 6.09025 21.6471 5.32449 23.3334 5.22135C25.0198 5.32449 26.597 6.09025 27.721 7.35162C28.845 8.61299 29.4246 10.2676 29.3334 11.9547C29.3334 15.8254 25.4041 21.34 18.5534 27.0827V27.088Z" fill="#6C6C6C"/>
</g>
<defs>
<clipPath id="clip0_1007_19257">
<rect width="32" height="32" fill="white"/>
</clipPath>
</defs>
</svg>
